<svg xmlns:inkscape="http://www.inkscape.org/namespaces/inkscape" xmlns:sodipodi="http://sodipodi.sourceforge.net/DTD/sodipodi-0.dtd" xmlns="http://www.w3.org/2000/svg" xmlns:svg="http://www.w3.org/2000/svg" xmlns:rdf="http://www.w3.org/1999/02/22-rdf-syntax-ns#" xmlns:cc="http://creativecommons.org/ns#" xmlns:dc="http://purl.org/dc/elements/1.1/" viewBox="0 0 10.583333 13.2291675" version="1.1" x="0px" y="0px"><g><path style="color:#000000;" d="m 8.5180931,0.79375473 c -0.855137,-0.0012 -1.686596,0.34332597 -2.287341,0.97341997 a 0.29620934,0.29620934 0 0 0 -7.4e-5,8e-5 c -0.74113,0.777902 -1.021192,1.878948 -0.745071,2.906619 -0.30264,0.509109 -0.53912,1.060817 -0.675771,1.67161 -0.06226,-0.127001 -0.129459,-0.250883 -0.200941,-0.371965 0.233669,-0.892866 -0.01203,-1.847136 -0.655202,-2.522222 a 0.29620934,0.29620934 0 0 0 -7.5e-5,-8e-5 c -0.524609,-0.550235 -1.250569,-0.851006 -1.997137,-0.849966 -0.209039,2.91e-4 -0.419693,0.02425 -0.627997,0.07301 l 0.0061,-7e-4 a 0.29620934,0.29620934 0 0 0 -0.221426,0.201266 c -0.287326,0.925501 -0.04869,1.933909 0.62259,2.638227 a 0.29620934,0.29620934 0 0 0 4.5e-5,4.8e-5 c 0.6186,0.648752 1.517121,0.950659 2.399283,0.819926 0.303579,0.530871 0.506828,1.112233 0.559101,1.78023 v 1.380144 a 0.29617974,0.29617974 0 0 0 0.296179,0.29618 0.29617974,0.29617974 0 0 0 0.296182,-0.29618 v -2.340389 c 0.06214,-0.797674 0.307795,-1.489942 0.673328,-2.120802 1.020746,0.161959 2.0642,-0.183214 2.780083,-0.933988 a 0.29620934,0.29620934 0 0 0 4.5e-5,-4.7e-5 c 0.768709,-0.806537 1.041763,-1.960676 0.712821,-3.02023 A 0.29620934,0.29620934 0 0 0 9.2313711,0.87667373 l 0.0061,7.04e-4 c -0.238606,-0.05586 -0.479903,-0.08329 -0.719341,-0.08362 z m -9.78e-4,0.59236397 c 0.138102,1.83e-4 0.276999,0.01148 0.415371,0.03423 0.190042,0.807197 -0.03881,1.657979 -0.621313,2.269144 -0.51722,0.5424 -1.247476,0.82453 -1.988554,0.785858 0.4426,-0.612011 0.990728,-1.173584 1.576249,-1.731867 a 0.29617974,0.29617974 0 0 0 0.01,-0.418741 0.29617974,0.29617974 0 0 0 -0.23314,-0.0912 0.29617974,0.29617974 0 0 0 -0.185604,0.08122 c -0.538905,0.513834 -1.066038,1.04945 -1.515616,1.639002 -0.01907,-0.649207 0.220123,-1.28985 0.685,-1.777835 0.486709,-0.510486 1.162094,-0.790739 1.857635,-0.789815 z m -6.559657,1.807498 c 0.586966,-7.77e-4 1.156847,0.235725 1.567419,0.666344 0,0 1.5e-5,1.3e-5 1.5e-5,1.6e-5 0.363558,0.381636 0.563442,0.873613 0.577762,1.379459 -0.371861,-0.472201 -0.798779,-0.904258 -1.233437,-1.318694 a 0.29617974,0.29617974 0 0 0 -0.185601,-0.08122 0.29617974,0.29617974 0 0 0 -0.23314,0.0912 0.29617974,0.29617974 0 0 0 0.01,0.418743 c 0.482766,0.460306 0.934432,0.921707 1.30437,1.420338 -0.598505,0.0099 -1.18205,-0.22682 -1.600299,-0.665427 l -2.8e-5,-3.3e-5 -1.8e-5,-1.8e-5 c -0.48478,-0.508667 -0.678719,-1.213494 -0.529899,-1.885917 0.107623,-0.01628 0.215534,-0.02465 0.322883,-0.02479 z" fill="#000000" stroke-width="0.00136007" stroke-linecap="round" stroke-linejoin="round"/></g><text x="0" y="25.583334" fill="#000000" font-size="5px" font-weight="bold" font-family="'Helvetica Neue', Helvetica, Arial-Unicode, Arial, Sans-serif">Created by Larea</text><text x="0" y="30.583334" fill="#000000" font-size="5px" font-weight="bold" font-family="'Helvetica Neue', Helvetica, Arial-Unicode, Arial, Sans-serif">from the Noun Project</text></svg>