<svg xmlns:inkscape="http://www.inkscape.org/namespaces/inkscape" xmlns:sodipodi="http://sodipodi.sourceforge.net/DTD/sodipodi-0.dtd" xmlns="http://www.w3.org/2000/svg" xmlns:svg="http://www.w3.org/2000/svg" xmlns:rdf="http://www.w3.org/1999/02/22-rdf-syntax-ns#" xmlns:cc="http://creativecommons.org/ns#" xmlns:dc="http://purl.org/dc/elements/1.1/" viewBox="0 0 16.933333 21.1666675" version="1.1" x="0px" y="0px"><g transform="translate(0,0.5291667)"><path style="color:#000000;paint-order:fill markers stroke;" d="m 10.400908,0.26428518 c -1.4674557,0 -2.9347065,0.559522 -4.0529823,1.67793402 -1.9520246,1.952262 -2.200022,4.968292 -0.7446573,7.191292 L 1.3120575,12.826308 a 0.26460995,0.26460995 0 0 0 -0.015503,0.01344 c -0.64037763,0.640456 -0.66581785,1.672465 -0.039274,2.299086 0.6269407,0.627015 1.7066262,0.649396 2.3125202,-0.05478 l 3.6912475,-4.29121 c 2.2229707,1.45738 5.2405958,1.209376 7.1933598,-0.743625 2.236551,-2.2368248 2.236551,-5.8701748 0,-8.1069988 -1.118276,-1.11841102 -2.586043,-1.67793402 -4.0535,-1.67793402 z m 0,0.526066 c 1.330885,0 2.661674,0.50871002 3.678846,1.52600502 2.034343,2.034591 2.035893,5.325683 0.0015,7.360276 -2.034343,2.0345898 -5.3248974,2.0330388 -7.3592408,-0.0016 -0.1986153,-0.198641 -0.3776016,-0.409191 -0.5374349,-0.62942 a 0.26458349,0.26458349 0 0 0 -0.024288,-0.03411 C 4.7094559,6.9783312 4.8964893,4.1421522 6.7220632,2.3163562 7.7392348,1.2990612 9.0700236,0.79035118 10.400908,0.79035118 Z m 0.01395,1.47071202 c -0.211329,-5.53e-4 -0.4220604,0.01687 -0.6299356,0.05168 -0.739113,0.123769 -1.4424591,0.467968 -2.0019449,1.017509 a 0.26458349,0.26458349 0 0 0 -0.00207,0.374654 0.26458349,0.26458349 0 0 0 0.3731038,0.0041 c 0.9616709,-0.944542 2.4082557,-1.186923 3.6251077,-0.607168 a 0.26458349,0.26458349 0 0 0 0.353467,-0.125057 0.26458349,0.26458349 0 0 0 -0.125057,-0.353467 c -0.508849,-0.242434 -1.052605,-0.36084 -1.592668,-0.362251 z m -4.5005003,7.302912 c 0.1337972,0.167957 0.2781758,0.329835 0.433565,0.4852428 0.1545029,0.154522 0.3157456,0.298326 0.482658,0.431498 l -3.6628225,4.257622 c -0.3976219,0.462116 -1.1185086,0.442169 -1.5353067,0.02532 -0.4161314,-0.416182 -0.4071977,-1.098799 0.037207,-1.546675 z" fill="#000000" fill-rule="evenodd" stroke-width="1" stroke-linecap="round" stroke-linejoin="round"/></g><text x="0" y="31.933334" fill="#000000" font-size="5px" font-weight="bold" font-family="'Helvetica Neue', Helvetica, Arial-Unicode, Arial, Sans-serif">Created by Alzam</text><text x="0" y="36.933334" fill="#000000" font-size="5px" font-weight="bold" font-family="'Helvetica Neue', Helvetica, Arial-Unicode, Arial, Sans-serif">from the Noun Project</text></svg>