<svg xmlns="http://www.w3.org/2000/svg" version="1.1" viewBox="-5.0 -10.0 110.0 135.0">
 <path d="m14.629 74.773c0.47656 0.67578 0.3125 1.6094-0.36328 2.0859s-1.6094 0.3125-2.0859-0.36328c-2.6758-3.8164-4.793-8.0586-6.2266-12.605-1.3828-4.3867-2.1289-9.0586-2.1289-13.891 0-12.75 5.168-24.297 13.523-32.652 8.3555-8.3555 19.902-13.523 32.652-13.523s24.297 5.168 32.652 13.523c0.53125 0.53125 1.0508 1.0781 1.5586 1.6367l0.027343 0.027344c7.6719 8.4727 11.941 19.441 11.941 30.988 0 11.914-4.5156 22.773-11.922 30.965l-0.023437 0.027344c-0.51562 0.56641-1.0391 1.1211-1.5781 1.6602-8.3555 8.3555-19.902 13.523-32.652 13.523-5.6406 0-11.059-1.0195-16.074-2.8789-5.1914-1.9258-9.9492-4.7656-14.066-8.3164-0.625-0.53906-0.69141-1.4844-0.15234-2.1094 0.53906-0.625 1.4844-0.69141 2.1094-0.15234 3.8477 3.3203 8.2969 5.9727 13.156 7.7773 4.668 1.7344 9.7344 2.6836 15.027 2.6836 11.922 0 22.719-4.8359 30.531-12.645 0.37109-0.37109 0.73438-0.75391 1.0938-1.1367 0.03125-2.3398 0.17188-9.2734-0.11719-9.7656l-6.1758-7.5938c-0.26172-0.32422-0.46094-0.66797-0.58984-1.0391-0.13281-0.38281-0.19922-0.77344-0.19922-1.1758v-4.832c0-0.082032-0.011719-0.14844-0.03125-0.19531-0.019531-0.050781-0.058594-0.10547-0.12109-0.16406l-1.3789-1.3828c-0.058594-0.058594-0.11719-0.10156-0.16016-0.12109-0.046875-0.019531-0.11719-0.03125-0.20312-0.03125h-4.4648c-0.47266 0-0.92188-0.089844-1.3438-0.26562-0.42578-0.17969-0.80859-0.43359-1.1367-0.76562l-3.5156-3.5156-0.16406-0.12109c-0.046875-0.019532-0.11719-0.03125-0.19531-0.03125h-6.1328c-0.46484 0-0.91406-0.089844-1.3398-0.26563-0.42969-0.17578-0.8125-0.43359-1.1445-0.76562l-2.375-2.3789c-0.30469-0.30469-0.54688-0.65625-0.72266-1.0469l-0.042969-0.09375c-0.17578-0.42188-0.26562-0.87109-0.26562-1.3438v-7.3555c0-0.47266 0.089844-0.92188 0.26562-1.3438 0.17969-0.42578 0.43359-0.80859 0.76562-1.1367l4.0117-4.0117c0.68359-0.68359 1.5859-1.0273 2.4844-1.0273 0.84766 0 1.7031 0.30859 2.375 0.92969l1.0977 1.0859 0.16406 0.12109c0.046875 0.019531 0.11328 0.03125 0.19531 0.03125h1.2852c0.47656 0 0.93359 0.09375 1.3672 0.27734 0.42969 0.17969 0.81641 0.44922 1.1523 0.79297l3.2734 3.375c0.058594 0.058593 0.11328 0.10156 0.16406 0.12109 0.046875 0.019531 0.11719 0.03125 0.20703 0.03125h5.9375c0.082031 0 0.14844-0.011719 0.19531-0.03125s0.10547-0.058593 0.16406-0.12109l3.3008-3.3008c0.30469-0.30469 0.65625-0.54688 1.0469-0.72266l0.09375-0.042969c0.42188-0.17578 0.87109-0.26562 1.3438-0.26562h1.9023c0.082032 0 0.14844-0.011718 0.19531-0.03125 0.046875-0.019531 0.10547-0.058594 0.16406-0.12109l3.2734-3.2734c-0.97266-1.4922-2.0312-2.9219-3.1758-4.2812l-2.1367 2.1367c-0.27344 0.27344-0.64453 0.4375-1.0625 0.4375h-6.668c-0.37891 0-0.74219-0.042969-1.1016-0.13281-0.3125-0.078125-0.62109-0.19922-0.93359-0.35547l-2.293-1.2266c-0.30078-0.16016-0.63281-0.21875-0.94141-0.17188-0.30469 0.042969-0.60547 0.19531-0.84766 0.4375l-0.13281 0.13281c-0.42969 0.42969-0.91797 0.75781-1.4609 0.98437-0.55078 0.22266-1.125 0.33594-1.7305 0.33594h-6.0781c-0.24609-0.007812-0.49609-0.066406-0.72656-0.19531-0.71875-0.40234-0.98047-1.3125-0.57812-2.0312l2.8438-5.0938c0.50781-0.91016 1.2266-1.6289 2.0859-2.1172 0.85938-0.48047 1.8398-0.72656 2.875-0.69922l5.5586 0.17578c0.25391 0.007813 0.49219-0.015624 0.71094-0.070312l0.042969-0.011719c0.23438-0.066406 0.46484-0.17188 0.69141-0.32031l1.6562-1.0742c-6.625-4.1328-14.449-6.5234-22.836-6.5234-6.4219 0-12.516 1.4023-17.992 3.918h0.75391c0.64844 0 1.2617 0.10156 1.8438 0.30859 0.57813 0.20312 1.1211 0.51562 1.6289 0.92969l1.3047 1.0625c0.23438 0.1875 0.48047 0.33203 0.73828 0.42578 0.25391 0.089844 0.53516 0.13281 0.84766 0.13281h6.2148c0.76953 0 1.4922 0.24609 2.082 0.67969l0.070312 0.054687c0.55469 0.42969 0.98047 1.0312 1.1992 1.7461 0.22656 0.74219 0.20703 1.5039-0.035156 2.1914-0.23828 0.69141-0.69922 1.3047-1.3398 1.7383-0.85156 0.53125-1.668 0.82422-2.6055 1.2266-1.0859 8.9141-7.25 10.555-18.523 13.555l-3.9336 1.0547c-0.11719 0.03125-0.21094 0.09375-0.27344 0.17969-0.058593 0.078124-0.09375 0.19141-0.09375 0.32031v1.0273c0 0.085937 0.015626 0.16406 0.042969 0.22266l0.14453 0.17969 4.0234 3.2734c0.42188 0.34375 0.74609 0.75391 0.96484 1.2109 0.22266 0.46484 0.33594 0.97266 0.33594 1.5117 0 0.53906-0.11328 1.0469-0.33594 1.5117-0.21875 0.45703-0.54297 0.86719-0.96484 1.2109l-0.60547 0.49219c-0.48438 0.39453-1.0312 0.64453-1.6055 0.74219l-0.078124 0.011719c-0.55078 0.082031-1.125 0.03125-1.6836-0.16406l-5.7617-2.0078c-0.71094-0.24609-1.3008-0.69922-1.7109-1.2773-0.41406-0.58203-0.64844-1.2852-0.64844-2.0352v-0.74219c0-0.13672-0.019531-0.26172-0.0625-0.33984l-5.6484-2.4102c-0.96484 3.582-1.4766 7.3516-1.4766 11.238 0 4.5352 0.69922 8.9062 1.9883 13 1.3359 4.2422 3.3164 8.207 5.8164 11.773zm69.992 1.0273c5.375-7.1992 8.5547-16.129 8.5547-25.805 0-7.5625-1.9453-14.672-5.3633-20.855l-2.7461 2.7461c-0.32812 0.32812-0.71094 0.58594-1.1367 0.76172-0.42188 0.17578-0.87109 0.26562-1.3438 0.26562h-1.9023c-0.082032 0-0.14844 0.011719-0.19531 0.03125l-0.16406 0.12109-3.3008 3.3008c-0.32813 0.32812-0.71094 0.58594-1.1367 0.76172-0.42188 0.17578-0.87109 0.26562-1.3438 0.26562h-5.9375c-0.47266 0-0.93359-0.09375-1.3672-0.27734-0.42969-0.17969-0.81641-0.44922-1.1523-0.79297l-3.2734-3.375c-0.058594-0.058594-0.11328-0.10156-0.16406-0.12109-0.046876-0.019531-0.11719-0.03125-0.20703-0.03125h-1.2852c-0.47266 0-0.92188-0.089844-1.3438-0.26562l-0.09375-0.042969c-0.39062-0.17188-0.74219-0.41797-1.0469-0.72266l-1.0273-1.0273c-0.089843-0.070312-0.20312-0.10547-0.32031-0.10547-0.12891 0-0.26172 0.050782-0.36328 0.14844l-4.0117 4.0117c-0.058594 0.058593-0.10156 0.11719-0.12109 0.16016-0.019531 0.054687-0.03125 0.12109-0.03125 0.20312v7.3555c0 0.082031 0.011719 0.14844 0.03125 0.19531 0.14062 0.33203 2.1211 2.1719 2.4922 2.543l0.16016 0.11719c0.046875 0.019531 0.11719 0.03125 0.20312 0.03125h6.1328c0.47266 0 0.92188 0.089843 1.3438 0.26562l0.09375 0.042969c0.38672 0.17578 0.73828 0.41406 1.043 0.71875l3.5156 3.5156c0.058594 0.058594 0.11328 0.10156 0.16016 0.12109 0.054688 0.019531 0.12109 0.03125 0.20312 0.03125h4.4648c0.46875 0 0.91797 0.089844 1.3398 0.26562 0.42969 0.17578 0.8125 0.43359 1.1445 0.76562l1.3789 1.3828c0.33203 0.32813 0.58984 0.70703 0.76562 1.1367 0.17578 0.42188 0.26562 0.87109 0.26562 1.3438v4.832l0.019532 0.17188 0.09375 0.15234 6.1758 7.5938c0.26172 0.32422 0.46094 0.67188 0.58984 1.0391l0.035157 0.12109c0.10938 0.34375 0.16406 0.69141 0.16406 1.0547v5.8516zm-3.5859-55.82-0.50391-0.51562c-1.5586-1.5586-3.2305-2.9922-5.0117-4.3008l-2.7148 1.7617c-0.48438 0.31641-0.98828 0.54688-1.5156 0.69531l-0.078124 0.019531c-0.50391 0.13281-1.0234 0.1875-1.5742 0.17188l-5.5469-0.17578c-0.49219-0.011719-0.94531 0.09375-1.3242 0.30859-0.38281 0.21875-0.71094 0.55469-0.94922 0.98047l-1.5977 2.8555h3.5273c0.22266 0 0.41797-0.035156 0.58203-0.10156 0.16406-0.070313 0.32812-0.18359 0.48438-0.33984l0.13281-0.13281c0.70703-0.70703 1.5977-1.1445 2.5352-1.2812 0.93359-0.13672 1.9062 0.027344 2.793 0.50391 0.80469 0.43359 1.6875 1 2.5352 1.3164 0.10547 0.027344 0.23047 0.039062 0.37109 0.039062h6.0469l1.8047-1.8047zm-53.355 29.926-3.5664 2.9531-0.097656 0.14062c-0.023437 0.054688-0.039063 0.12891-0.039063 0.21875v1.8125c0 0.14453 0.058594 0.27344 0.14453 0.35938 0.09375 0.09375 0.22266 0.15234 0.36719 0.15234h4.0625c0.82812 0 1.5 0.67188 1.5 1.5l-0.085937 1.2891c-0.76953 11.316-1.2812 18.895 2.125 24.484 0.57422 0.94141 1.9062 2.3047 3.4805 3.332 0.625 0.41016 1.2812 0.75391 1.9219 0.98047v-4.3711c0-0.91406 0.26562-1.7734 0.74219-2.4961 0.47656-0.71875 1.1641-1.2969 2.0117-1.6562l1.5977-0.67969c0.33203-0.14062 0.59375-0.39062 0.75391-0.69531l0.027344-0.050781c0.13281-0.28906 0.17578-0.62891 0.10156-0.97266l-0.33203-1.5508c-0.1875-0.87891-0.11719-1.7578 0.18359-2.5508l0.035156-0.089844c0.30859-0.75781 0.82422-1.4297 1.5234-1.9414l2.1953-1.6094c0.20703-0.15234 0.36328-0.33203 0.46484-0.53125 0.097656-0.19531 0.15234-0.42969 0.15234-0.69141v-0.019532c0-0.71875 0.16016-1.3984 0.46484-2.0117l0.058594-0.10547c0.30469-0.57031 0.73438-1.0742 1.2812-1.4844 0.88672-0.66797 1.6133-1.5234 2.1797-2.5625 0.34766-0.63672 0.63281-1.3477 0.86328-2.1289h-1.8477c-0.74609 0-1.457-0.13672-2.1133-0.41016l-0.085938-0.039062c-0.62109-0.26953-1.1875-0.66016-1.6914-1.168l-2.7109-2.7031c-0.25391-0.25391-0.52734-0.44141-0.80469-0.55859-0.28906-0.11719-0.61328-0.17578-0.97266-0.17578h-9.5391c-0.96094 0-1.8359-0.39453-2.4766-1.0312-0.66016-0.66016-1.0352-1.5469-1.0352-2.4805v-0.070312c0-0.13672-0.03125-0.21094-0.10156-0.32422-0.046875-0.054688-0.11328-0.10547-0.19531-0.14453-0.097656-0.046875-0.19531-0.0625-0.28516-0.054688-0.089844 0.015625-0.17969 0.058594-0.26172 0.125zm-5.4336 0.60938 3.5195-2.918c0.53125-0.4375 1.1523-0.70703 1.8008-0.78906 0.64844-0.074219 1.3125 0.023437 1.9297 0.31641 0.56641 0.26562 1.0352 0.66797 1.3789 1.1523l0.09375 0.13281c0.34766 0.55078 0.53906 1.1992 0.53906 1.8867v0.070313c0 0.14453 0.058594 0.27344 0.14453 0.35937 0.09375 0.09375 0.22266 0.15234 0.36719 0.15234h9.5391c0.74609 0 1.457 0.13672 2.1133 0.41016 0.66406 0.27734 1.2617 0.67969 1.7852 1.2031l2.707 2.707c0.23438 0.23828 0.48438 0.41797 0.75 0.53516l0.058594 0.023437c0.28516 0.11719 0.60938 0.17578 0.96484 0.17578h3.7188c0.93359 0.089844 1.6406 0.75781 1.4766 1.7461-0.30469 1.8242-0.83594 3.4336-1.5898 4.8125-0.76953 1.418-1.7773 2.5977-3.0117 3.5273-0.18359 0.13672-0.32812 0.29688-0.42578 0.47656l-0.023438 0.046875c-0.097656 0.19531-0.14844 0.42578-0.14844 0.6875v0.019531c0 0.72656-0.16406 1.418-0.48047 2.0391-0.3125 0.62109-0.77734 1.1641-1.3672 1.5938l-2.1953 1.6094c-0.23438 0.17187-0.41016 0.39062-0.50781 0.62891l-0.019531 0.054687c-0.097656 0.26172-0.12109 0.55859-0.054687 0.86328l0.33203 1.5508c0.21875 1.0234 0.078125 2.0469-0.35156 2.9258l-0.046874 0.10156c-0.46875 0.89844-1.2461 1.6406-2.2539 2.0664l-1.5977 0.67969c-0.28516 0.12109-0.51953 0.31641-0.67578 0.55078-0.15234 0.23047-0.23828 0.52344-0.23828 0.84375v6.1641c0 0.82812-0.67187 1.5-1.5 1.5-1.6992 0-3.4805-0.74219-5.0508-1.7656-1.9492-1.2695-3.6445-3.0312-4.4062-4.2812-3.8594-6.3359-3.375-14.18-2.5859-25.832h-2.4609c-0.96094 0-1.8359-0.39453-2.4727-1.0273l-0.007812-0.007813c-0.63672-0.63672-1.0312-1.5156-1.0312-2.4766v-1.8125c0-0.52734 0.11328-1.0352 0.33203-1.4961 0.19531-0.41406 0.47266-0.78125 0.82812-1.1016l0.11328-0.10156zm4.4453-36.871c-2.6133 1.6797-5.0391 3.6328-7.2266 5.8203-4.5742 4.5742-8.125 10.172-10.285 16.418l5.9766 2.5469c0.63672 0.27344 1.1055 0.73437 1.4141 1.293 0.29688 0.54297 0.4375 1.1758 0.4375 1.7852v0.74219c0 0.12109 0.03125 0.22656 0.085938 0.30078 0.058594 0.082031 0.14844 0.14844 0.25781 0.18359l5.7617 2.0078c0.082031 0.027343 0.16406 0.039062 0.24219 0.03125 0.097656-0.019532 0.17188-0.050782 0.25391-0.11328l0.60547-0.49219c0.0625-0.050781 0.11328-0.11328 0.14453-0.17969 0.027344-0.058593 0.042969-0.13281 0.042969-0.22266 0-0.085937-0.015625-0.16406-0.042969-0.22266-0.03125-0.066407-0.082031-0.12891-0.14453-0.17969l-4.0234-3.2734c-0.43359-0.35547-0.70703-0.71484-0.96094-1.2109-0.22266-0.46484-0.33594-0.97266-0.33594-1.5117v-1.0273c0-0.78906 0.26172-1.5273 0.71875-2.125 0.45312-0.59766 1.1016-1.0469 1.8672-1.2539l3.957-1.0664c10.305-2.7422 15.781-4.2031 16.387-11.809 0.046875-0.53906 0.37891-1.0352 0.91016-1.2617 0.78125-0.33203 2.1797-0.78125 2.9062-1.2891 0.097656-0.066406 0.17188-0.15625 0.20312-0.25 0.035156-0.097656 0.035156-0.21484 0-0.32812-0.03125-0.10156-0.089844-0.19141-0.16016-0.25l-0.019532-0.011719c-0.082031-0.058593-0.19141-0.09375-0.3125-0.09375h-6.2148c-0.64844 0-1.2617-0.10156-1.8438-0.30859-0.57812-0.20312-1.1211-0.51562-1.6289-0.92969l-1.3047-1.0625c-0.23438-0.19141-0.48047-0.33203-0.73828-0.42578-0.25391-0.089844-0.53516-0.13281-0.84766-0.13281h-5.5469c-0.18359 0-0.35937-0.03125-0.51953-0.09375zm-8.6289 65.422c0.55469 0.61328 0.50391 1.5625-0.11328 2.1172-0.61328 0.55469-1.5625 0.50391-2.1172-0.11328l-0.14844-0.16797c-0.55469-0.61328-0.50391-1.5625 0.11328-2.1172 0.61328-0.55469 1.5625-0.50391 2.1172 0.11328z"/>
<text x="0.0" y="117.5" font-size="5.0" font-weight="bold" font-family="Arbeit Regular, Helvetica, Arial-Unicode, Arial, Sans-serif" fill="#000000">Created by Suhatidja</text><text x="0.0" y="122.5" font-size="5.0" font-weight="bold" font-family="Arbeit Regular, Helvetica, Arial-Unicode, Arial, Sans-serif" fill="#000000">from Noun Project</text></svg>